{
	"asset":{
		"generator":"Khronos glTF Blender I/O v3.5.30",
		"version":"2.0"
	},
	"scene":0,
	"scenes":[
		{
			"name":"Scene",
			"nodes":[
				0,
				1
			]
		}
	],
	"nodes":[
		{
			"mesh":0,
			"name":"XMLID_1_",
			"rotation":[
				0.7071068286895752,
				0,
				0,
				0.7071068286895752
			],
			"scale":[
				81.57585906982422,
				81.57585906982422,
				81.57585906982422
			],
			"translation":[
				-4.968977928161621,
				5.816160678863525,
				-4.338329792022705
			]
		},
		{
			"mesh":1,
			"name":"XMLID_2_",
			"rotation":[
				0.7071068286895752,
				0,
				0,
				0.7071068286895752
			],
			"scale":[
				81.57585906982422,
				81.57585906982422,
				81.57585906982422
			],
			"translation":[
				-0.25023984909057617,
				6.260555744171143,
				-4.2842254638671875
			]
		}
	],
	"materials":[
		{
			"doubleSided":true,
			"name":"SVGMat",
			"pbrMetallicRoughness":{
				"baseColorFactor":[
					0.5121943354606628,
					0.000546651950571686,
					0,
					1
				],
				"metallicFactor":0,
				"roughnessFactor":0.4000000059604645
			}
		},
		{
			"doubleSided":true,
			"name":"Material.001",
			"pbrMetallicRoughness":{
				"baseColorFactor":[
					0.8000000715255737,
					0.4142421782016754,
					0,
					1
				],
				"metallicFactor":0.026315808296203613,
				"roughnessFactor":0.5
			}
		}
	],
	"meshes":[
		{
			"name":"XMLID_1_",
			"primitives":[
				{
					"attributes":{
						"POSITION":0,
						"TEXCOORD_0":1,
						"NORMAL":2
					},
					"indices":3,
					"material":0
				}
			]
		},
		{
			"name":"XMLID_2_",
			"primitives":[
				{
					"attributes":{
						"POSITION":4,
						"TEXCOORD_0":5,
						"NORMAL":6
					},
					"indices":7,
					"material":1
				}
			]
		}
	],
	"accessors":[
		{
			"bufferView":0,
			"componentType":5126,
			"count":240,
			"max":[
				0.10764949023723602,
				0,
				0.022517606616020203
			],
			"min":[
				-0.06160472333431244,
				0,
				-0.024762311950325966
			],
			"type":"VEC3"
		},
		{
			"bufferView":1,
			"componentType":5126,
			"count":240,
			"type":"VEC2"
		},
		{
			"bufferView":2,
			"componentType":5126,
			"count":240,
			"type":"VEC3"
		},
		{
			"bufferView":3,
			"componentType":5123,
			"count":714,
			"type":"SCALAR"
		},
		{
			"bufferView":4,
			"componentType":5126,
			"count":1407,
			"max":[
				0.045117639005184174,
				0,
				0.025485733523964882
			],
			"min":[
				-0.08165917545557022,
				0,
				-0.016974862664937973
			],
			"type":"VEC3"
		},
		{
			"bufferView":5,
			"componentType":5126,
			"count":1407,
			"type":"VEC2"
		},
		{
			"bufferView":6,
			"componentType":5126,
			"count":1407,
			"type":"VEC3"
		},
		{
			"bufferView":7,
			"componentType":5123,
			"count":4170,
			"type":"SCALAR"
		}
	],
	"bufferViews":[
		{
			"buffer":0,
			"byteLength":2880,
			"byteOffset":0,
			"target":34962
		},
		{
			"buffer":0,
			"byteLength":1920,
			"byteOffset":2880,
			"target":34962
		},
		{
			"buffer":0,
			"byteLength":2880,
			"byteOffset":4800,
			"target":34962
		},
		{
			"buffer":0,
			"byteLength":1428,
			"byteOffset":7680,
			"target":34963
		},
		{
			"buffer":0,
			"byteLength":16884,
			"byteOffset":9108,
			"target":34962
		},
		{
			"buffer":0,
			"byteLength":11256,
			"byteOffset":25992,
			"target":34962
		},
		{
			"buffer":0,
			"byteLength":16884,
			"byteOffset":37248,
			"target":34962
		},
		{
			"buffer":0,
			"byteLength":8340,
			"byteOffset":54132,
			"target":34963
		}
	],
	"buffers":[
		{
			"byteLength":62472,
			"uri":"data:application/octet-stream;base64,"
		}
	]
}
