{
	"asset":{
		"generator":"Khronos glTF Blender I/O v3.5.30",
		"version":"2.0"
	},
	"scene":0,
	"scenes":[
		{
			"name":"Scene",
			"nodes":[
				0,
				1
			]
		}
	],
	"nodes":[
		{
			"mesh":0,
			"name":"Object_2",
			"rotation":[
				-0.70710688829422,
				0,
				0,
				0.7071066498756409
			],
			"scale":[
				2.3210113048553467,
				2.3210113048553467,
				2.3210113048553467
			],
			"translation":[
				1.864734172821045,
				1.3505985736846924,
				-1.439489483833313
			]
		},
		{
			"mesh":1,
			"name":"Object_2.001",
			"rotation":[
				-0.70710688829422,
				0,
				0,
				0.7071066498756409
			],
			"scale":[
				2.3210113048553467,
				2.3210113048553467,
				2.3210113048553467
			],
			"translation":[
				-1.748037338256836,
				1.3505985736846924,
				-1.439489483833313
			]
		}
	],
	"materials":[
		{
			"doubleSided":true,
			"name":"Wheel",
			"normalTexture":{
				"index":0
			},
			"pbrMetallicRoughness":{
				"baseColorTexture":{
					"index":1
				},
				"metallicRoughnessTexture":{
					"index":2
				}
			}
		}
	],
	"meshes":[
		{
			"name":"Object_0.003",
			"primitives":[
				{
					"attributes":{
						"POSITION":0,
						"TEXCOORD_0":1,
						"NORMAL":2
					},
					"indices":3,
					"material":0
				}
			]
		},
		{
			"name":"Object_0.004",
			"primitives":[
				{
					"attributes":{
						"POSITION":4,
						"TEXCOORD_0":5,
						"NORMAL":6
					},
					"indices":3,
					"material":0
				}
			]
		}
	],
	"textures":[
		{
			"sampler":0,
			"source":0
		},
		{
			"sampler":0,
			"source":1
		},
		{
			"sampler":0,
			"source":2
		}
	],
	"images":[
		{
			"bufferView":4,
			"mimeType":"image/png",
			"name":"Wheel_normal"
		},
		{
			"bufferView":5,
			"mimeType":"image/png",
			"name":"Wheel_baseColor"
		},
		{
			"bufferView":6,
			"mimeType":"image/png",
			"name":"Wheel_metallicRoughness"
		}
	],
	"accessors":[
		{
			"bufferView":0,
			"componentType":5126,
			"count":4604,
			"max":[
				0.22645099461078644,
				0.5743190050125122,
				0.5744060277938843
			],
			"min":[
				-0.22640399634838104,
				-0.5746480226516724,
				-0.5744630098342896
			],
			"type":"VEC3"
		},
		{
			"bufferView":1,
			"componentType":5126,
			"count":4604,
			"type":"VEC2"
		},
		{
			"bufferView":2,
			"componentType":5126,
			"count":4604,
			"type":"VEC3"
		},
		{
			"bufferView":3,
			"componentType":5123,
			"count":19221,
			"type":"SCALAR"
		},
		{
			"bufferView":7,
			"componentType":5126,
			"count":4604,
			"max":[
				0.22645099461078644,
				0.5743190050125122,
				0.5744060277938843
			],
			"min":[
				-0.22640399634838104,
				-0.5746480226516724,
				-0.5744630098342896
			],
			"type":"VEC3"
		},
		{
			"bufferView":8,
			"componentType":5126,
			"count":4604,
			"type":"VEC2"
		},
		{
			"bufferView":9,
			"componentType":5126,
			"count":4604,
			"type":"VEC3"
		}
	],
	"bufferViews":[
		{
			"buffer":0,
			"byteLength":55248,
			"byteOffset":0,
			"target":34962
		},
		{
			"buffer":0,
			"byteLength":36832,
			"byteOffset":55248,
			"target":34962
		},
		{
			"buffer":0,
			"byteLength":55248,
			"byteOffset":92080,
			"target":34962
		},
		{
			"buffer":0,
			"byteLength":38442,
			"byteOffset":147328,
			"target":34963
		},
		{
			"buffer":0,
			"byteLength":571033,
			"byteOffset":185772
		},
		{
			"buffer":0,
			"byteLength":51162,
			"byteOffset":756808
		},
		{
			"buffer":0,
			"byteLength":59418,
			"byteOffset":807972
		},
		{
			"buffer":0,
			"byteLength":55248,
			"byteOffset":867392,
			"target":34962
		},
		{
			"buffer":0,
			"byteLength":36832,
			"byteOffset":922640,
			"target":34962
		},
		{
			"buffer":0,
			"byteLength":55248,
			"byteOffset":959472,
			"target":34962
		}
	],
	"samplers":[
		{
			"magFilter":9729,
			"minFilter":9987
		}
	],
	"buffers":[
		{
			"byteLength":1014720,
			"uri":"data:application/octet-stream;base64,"
		}
	]
}
