{
	"asset":{
		"generator":"Khronos glTF Blender I/O v3.5.30",
		"version":"2.0"
	},
	"scene":0,
	"scenes":[
		{
			"name":"Scene",
			"nodes":[
				10
			]
		}
	],
	"nodes":[
		{
			"name":"Object_11",
			"rotation":[
				-0.7071068286895752,
				0,
				0,
				0.7071067094802856
			],
			"scale":[
				100.00000762939453,
				100.00000762939453,
				100.0000228881836
			],
			"translation":[
				0,
				-4.799994945526123,
				0
			]
		},
		{
			"mesh":0,
			"name":"Object_12",
			"rotation":[
				0.13074815273284912,
				-0.06298207491636276,
				-0.0006723357946611941,
				0.9894128441810608
			]
		},
		{
			"name":"Bone_end_03",
			"rotation":[
				-5.587935447692871e-09,
				-5.587935447692871e-09,
				-1.4901161193847656e-08,
				1
			],
			"translation":[
				5.739859787468049e-08,
				1.747999668121338,
				4.8982602862679414e-08
			]
		},
		{
			"children":[
				2
			],
			"name":"Bone_00",
			"rotation":[
				-1,
				-7.450580596923828e-09,
				-8.009374141693115e-08,
				1.4901161193847656e-08
			],
			"translation":[
				-1.1920928955078125e-07,
				1.747999906539917,
				4.470348358154297e-08
			]
		},
		{
			"name":"Bone.001_end_02",
			"rotation":[
				1.6763806343078613e-08,
				1.1175870895385742e-08,
				7.450580596923828e-09,
				1
			],
			"translation":[
				9.050997817894313e-08,
				1.352000117301941,
				-9.47180041066531e-08
			]
		},
		{
			"children":[
				4
			],
			"name":"Bone.001_01",
			"rotation":[
				1.6763806343078613e-08,
				1.1175870895385742e-08,
				7.450580596923828e-09,
				1
			],
			"translation":[
				1.4901161193847656e-08,
				-1.35200035572052,
				-1.7136335372924805e-07
			]
		},
		{
			"children":[
				3,
				5
			],
			"name":"_rootJoint",
			"rotation":[
				-1,
				-7.450580596923828e-09,
				-6.798654794692993e-08,
				4.097820038850841e-08
			],
			"scale":[
				1,
				0.9999999403953552,
				0.9999998807907104
			],
			"translation":[
				-1.1920928955078125e-07,
				0,
				0
			]
		},
		{
			"children":[
				0,
				1,
				6
			],
			"name":"Object_5",
			"rotation":[
				0.4357396364212036,
				0.41303303837776184,
				0.4011118412017822,
				0.6918410658836365
			]
		},
		{
			"children":[
				7
			],
			"name":"Armature",
			"rotation":[
				-0.70710688829422,
				0,
				0,
				0.7071066498756409
			],
			"scale":[
				99.99999237060547,
				99.99999237060547,
				99.99999237060547
			],
			"translation":[
				-1.52587890625e-05,
				0,
				-7.62939453125e-06
			]
		},
		{
			"name":"Bottle",
			"rotation":[
				-0.70710688829422,
				0,
				0,
				0.7071066498756409
			],
			"scale":[
				99.99999237060547,
				99.99999237060547,
				99.99999237060547
			],
			"translation":[
				0,
				-4.799982070922852,
				-5.7152105910063256e-06
			]
		},
		{
			"children":[
				8,
				9
			],
			"name":"Simple Pill Bottle",
			"rotation":[
				-0.2518724501132965,
				-0.7335484027862549,
				0.5232419371604919,
				0.3531074523925781
			],
			"scale":[
				0.009772254154086113,
				0.009772256948053837,
				0.009772257879376411
			],
			"translation":[
				0,
				1.7661770582199097,
				0
			]
		}
	],
	"animations":[
		{
			"channels":[
				{
					"sampler":0,
					"target":{
						"node":10,
						"path":"translation"
					}
				},
				{
					"sampler":1,
					"target":{
						"node":10,
						"path":"rotation"
					}
				},
				{
					"sampler":2,
					"target":{
						"node":10,
						"path":"scale"
					}
				}
			],
			"name":"Simple Pill Bottle",
			"samplers":[
				{
					"input":5,
					"interpolation":"LINEAR",
					"output":6
				},
				{
					"input":5,
					"interpolation":"LINEAR",
					"output":7
				},
				{
					"input":5,
					"interpolation":"LINEAR",
					"output":8
				}
			]
		},
		{
			"channels":[
				{
					"sampler":0,
					"target":{
						"node":8,
						"path":"translation"
					}
				},
				{
					"sampler":1,
					"target":{
						"node":8,
						"path":"rotation"
					}
				},
				{
					"sampler":2,
					"target":{
						"node":8,
						"path":"scale"
					}
				}
			],
			"name":"Armature",
			"samplers":[
				{
					"input":5,
					"interpolation":"LINEAR",
					"output":9
				},
				{
					"input":5,
					"interpolation":"LINEAR",
					"output":10
				},
				{
					"input":5,
					"interpolation":"LINEAR",
					"output":11
				}
			]
		},
		{
			"channels":[
				{
					"sampler":0,
					"target":{
						"node":6,
						"path":"translation"
					}
				},
				{
					"sampler":1,
					"target":{
						"node":6,
						"path":"rotation"
					}
				},
				{
					"sampler":2,
					"target":{
						"node":6,
						"path":"scale"
					}
				},
				{
					"sampler":3,
					"target":{
						"node":3,
						"path":"translation"
					}
				},
				{
					"sampler":4,
					"target":{
						"node":3,
						"path":"rotation"
					}
				},
				{
					"sampler":5,
					"target":{
						"node":3,
						"path":"scale"
					}
				},
				{
					"sampler":6,
					"target":{
						"node":2,
						"path":"translation"
					}
				},
				{
					"sampler":7,
					"target":{
						"node":2,
						"path":"rotation"
					}
				},
				{
					"sampler":8,
					"target":{
						"node":2,
						"path":"scale"
					}
				},
				{
					"sampler":9,
					"target":{
						"node":5,
						"path":"translation"
					}
				},
				{
					"sampler":10,
					"target":{
						"node":5,
						"path":"rotation"
					}
				},
				{
					"sampler":11,
					"target":{
						"node":5,
						"path":"scale"
					}
				},
				{
					"sampler":12,
					"target":{
						"node":4,
						"path":"translation"
					}
				},
				{
					"sampler":13,
					"target":{
						"node":4,
						"path":"rotation"
					}
				},
				{
					"sampler":14,
					"target":{
						"node":4,
						"path":"scale"
					}
				}
			],
			"name":"Armature|ArmatureAction",
			"samplers":[
				{
					"input":12,
					"interpolation":"LINEAR",
					"output":13
				},
				{
					"input":12,
					"interpolation":"LINEAR",
					"output":14
				},
				{
					"input":12,
					"interpolation":"LINEAR",
					"output":15
				},
				{
					"input":12,
					"interpolation":"LINEAR",
					"output":16
				},
				{
					"input":12,
					"interpolation":"LINEAR",
					"output":17
				},
				{
					"input":12,
					"interpolation":"LINEAR",
					"output":18
				},
				{
					"input":12,
					"interpolation":"LINEAR",
					"output":19
				},
				{
					"input":12,
					"interpolation":"LINEAR",
					"output":20
				},
				{
					"input":12,
					"interpolation":"LINEAR",
					"output":21
				},
				{
					"input":12,
					"interpolation":"LINEAR",
					"output":22
				},
				{
					"input":12,
					"interpolation":"LINEAR",
					"output":23
				},
				{
					"input":12,
					"interpolation":"LINEAR",
					"output":24
				},
				{
					"input":12,
					"interpolation":"LINEAR",
					"output":25
				},
				{
					"input":12,
					"interpolation":"LINEAR",
					"output":26
				},
				{
					"input":12,
					"interpolation":"LINEAR",
					"output":27
				}
			]
		},
		{
			"channels":[
				{
					"sampler":0,
					"target":{
						"node":0,
						"path":"translation"
					}
				},
				{
					"sampler":1,
					"target":{
						"node":0,
						"path":"rotation"
					}
				},
				{
					"sampler":2,
					"target":{
						"node":0,
						"path":"scale"
					}
				}
			],
			"name":"Object_11",
			"samplers":[
				{
					"input":5,
					"interpolation":"LINEAR",
					"output":28
				},
				{
					"input":5,
					"interpolation":"LINEAR",
					"output":29
				},
				{
					"input":5,
					"interpolation":"LINEAR",
					"output":30
				}
			]
		},
		{
			"channels":[
				{
					"sampler":0,
					"target":{
						"node":1,
						"path":"translation"
					}
				},
				{
					"sampler":1,
					"target":{
						"node":1,
						"path":"rotation"
					}
				},
				{
					"sampler":2,
					"target":{
						"node":1,
						"path":"scale"
					}
				}
			],
			"name":"Object_12",
			"samplers":[
				{
					"input":5,
					"interpolation":"LINEAR",
					"output":31
				},
				{
					"input":5,
					"interpolation":"LINEAR",
					"output":32
				},
				{
					"input":5,
					"interpolation":"LINEAR",
					"output":33
				}
			]
		},
		{
			"channels":[
				{
					"sampler":0,
					"target":{
						"node":9,
						"path":"translation"
					}
				},
				{
					"sampler":1,
					"target":{
						"node":9,
						"path":"rotation"
					}
				},
				{
					"sampler":2,
					"target":{
						"node":9,
						"path":"scale"
					}
				}
			],
			"name":"Bottle",
			"samplers":[
				{
					"input":5,
					"interpolation":"LINEAR",
					"output":34
				},
				{
					"input":5,
					"interpolation":"LINEAR",
					"output":35
				},
				{
					"input":5,
					"interpolation":"LINEAR",
					"output":36
				}
			]
		}
	],
	"materials":[
		{
			"doubleSided":true,
			"name":"Scene_-_Root.001",
			"occlusionTexture":{
				"index":0
			},
			"pbrMetallicRoughness":{}
		}
	],
	"meshes":[
		{
			"name":"Bottle__0",
			"primitives":[
				{
					"attributes":{
						"POSITION":0,
						"TEXCOORD_0":1,
						"TEXCOORD_1":2,
						"NORMAL":3
					},
					"indices":4,
					"material":0
				}
			]
		}
	],
	"textures":[
		{
			"sampler":0,
			"source":0
		}
	],
	"images":[
		{
			"bufferView":5,
			"mimeType":"image/png",
			"name":"Scene_-_Root_occlusion"
		}
	],
	"skins":[
		{
			"inverseBindMatrices":37,
			"joints":[
				6,
				3,
				2,
				5,
				4
			],
			"name":"Object_5"
		}
	],
	"accessors":[
		{
			"bufferView":0,
			"componentType":5126,
			"count":3580,
			"max":[
				1,
				1.7722622156143188,
				1
			],
			"min":[
				-1,
				-1.7824219465255737,
				-1
			],
			"type":"VEC3"
		},
		{
			"bufferView":1,
			"componentType":5126,
			"count":3580,
			"type":"VEC2"
		},
		{
			"bufferView":2,
			"componentType":5126,
			"count":3580,
			"type":"VEC2"
		},
		{
			"bufferView":3,
			"componentType":5126,
			"count":3580,
			"type":"VEC3"
		},
		{
			"bufferView":4,
			"componentType":5123,
			"count":12504,
			"type":"SCALAR"
		},
		{
			"bufferView":6,
			"componentType":5126,
			"count":201,
			"max":[
				8.333333333333334
			],
			"min":[
				0
			],
			"type":"SCALAR"
		},
		{
			"bufferView":7,
			"componentType":5126,
			"count":201,
			"type":"VEC3"
		},
		{
			"bufferView":8,
			"componentType":5126,
			"count":201,
			"type":"VEC4"
		},
		{
			"bufferView":9,
			"componentType":5126,
			"count":201,
			"type":"VEC3"
		},
		{
			"bufferView":10,
			"componentType":5126,
			"count":201,
			"type":"VEC3"
		},
		{
			"bufferView":11,
			"componentType":5126,
			"count":201,
			"type":"VEC4"
		},
		{
			"bufferView":12,
			"componentType":5126,
			"count":201,
			"type":"VEC3"
		},
		{
			"bufferView":13,
			"componentType":5126,
			"count":81,
			"max":[
				3.3333333333333335
			],
			"min":[
				0
			],
			"type":"SCALAR"
		},
		{
			"bufferView":14,
			"componentType":5126,
			"count":81,
			"type":"VEC3"
		},
		{
			"bufferView":15,
			"componentType":5126,
			"count":81,
			"type":"VEC4"
		},
		{
			"bufferView":16,
			"componentType":5126,
			"count":81,
			"type":"VEC3"
		},
		{
			"bufferView":17,
			"componentType":5126,
			"count":81,
			"type":"VEC3"
		},
		{
			"bufferView":18,
			"componentType":5126,
			"count":81,
			"type":"VEC4"
		},
		{
			"bufferView":19,
			"componentType":5126,
			"count":81,
			"type":"VEC3"
		},
		{
			"bufferView":20,
			"componentType":5126,
			"count":81,
			"type":"VEC3"
		},
		{
			"bufferView":21,
			"componentType":5126,
			"count":81,
			"type":"VEC4"
		},
		{
			"bufferView":22,
			"componentType":5126,
			"count":81,
			"type":"VEC3"
		},
		{
			"bufferView":23,
			"componentType":5126,
			"count":81,
			"type":"VEC3"
		},
		{
			"bufferView":24,
			"componentType":5126,
			"count":81,
			"type":"VEC4"
		},
		{
			"bufferView":25,
			"componentType":5126,
			"count":81,
			"type":"VEC3"
		},
		{
			"bufferView":26,
			"componentType":5126,
			"count":81,
			"type":"VEC3"
		},
		{
			"bufferView":27,
			"componentType":5126,
			"count":81,
			"type":"VEC4"
		},
		{
			"bufferView":28,
			"componentType":5126,
			"count":81,
			"type":"VEC3"
		},
		{
			"bufferView":29,
			"componentType":5126,
			"count":201,
			"type":"VEC3"
		},
		{
			"bufferView":30,
			"componentType":5126,
			"count":201,
			"type":"VEC4"
		},
		{
			"bufferView":31,
			"componentType":5126,
			"count":201,
			"type":"VEC3"
		},
		{
			"bufferView":32,
			"componentType":5126,
			"count":201,
			"type":"VEC3"
		},
		{
			"bufferView":33,
			"componentType":5126,
			"count":201,
			"type":"VEC4"
		},
		{
			"bufferView":34,
			"componentType":5126,
			"count":201,
			"type":"VEC3"
		},
		{
			"bufferView":35,
			"componentType":5126,
			"count":201,
			"type":"VEC3"
		},
		{
			"bufferView":36,
			"componentType":5126,
			"count":201,
			"type":"VEC4"
		},
		{
			"bufferView":37,
			"componentType":5126,
			"count":201,
			"type":"VEC3"
		},
		{
			"bufferView":38,
			"componentType":5126,
			"count":5,
			"type":"MAT4"
		}
	],
	"bufferViews":[
		{
			"buffer":0,
			"byteLength":42960,
			"byteOffset":0,
			"target":34962
		},
		{
			"buffer":0,
			"byteLength":28640,
			"byteOffset":42960,
			"target":34962
		},
		{
			"buffer":0,
			"byteLength":28640,
			"byteOffset":71600,
			"target":34962
		},
		{
			"buffer":0,
			"byteLength":42960,
			"byteOffset":100240,
			"target":34962
		},
		{
			"buffer":0,
			"byteLength":25008,
			"byteOffset":143200,
			"target":34963
		},
		{
			"buffer":0,
			"byteLength":1048520,
			"byteOffset":168208
		},
		{
			"buffer":0,
			"byteLength":804,
			"byteOffset":1216728
		},
		{
			"buffer":0,
			"byteLength":2412,
			"byteOffset":1217532
		},
		{
			"buffer":0,
			"byteLength":3216,
			"byteOffset":1219944
		},
		{
			"buffer":0,
			"byteLength":2412,
			"byteOffset":1223160
		},
		{
			"buffer":0,
			"byteLength":2412,
			"byteOffset":1225572
		},
		{
			"buffer":0,
			"byteLength":3216,
			"byteOffset":1227984
		},
		{
			"buffer":0,
			"byteLength":2412,
			"byteOffset":1231200
		},
		{
			"buffer":0,
			"byteLength":324,
			"byteOffset":1233612
		},
		{
			"buffer":0,
			"byteLength":972,
			"byteOffset":1233936
		},
		{
			"buffer":0,
			"byteLength":1296,
			"byteOffset":1234908
		},
		{
			"buffer":0,
			"byteLength":972,
			"byteOffset":1236204
		},
		{
			"buffer":0,
			"byteLength":972,
			"byteOffset":1237176
		},
		{
			"buffer":0,
			"byteLength":1296,
			"byteOffset":1238148
		},
		{
			"buffer":0,
			"byteLength":972,
			"byteOffset":1239444
		},
		{
			"buffer":0,
			"byteLength":972,
			"byteOffset":1240416
		},
		{
			"buffer":0,
			"byteLength":1296,
			"byteOffset":1241388
		},
		{
			"buffer":0,
			"byteLength":972,
			"byteOffset":1242684
		},
		{
			"buffer":0,
			"byteLength":972,
			"byteOffset":1243656
		},
		{
			"buffer":0,
			"byteLength":1296,
			"byteOffset":1244628
		},
		{
			"buffer":0,
			"byteLength":972,
			"byteOffset":1245924
		},
		{
			"buffer":0,
			"byteLength":972,
			"byteOffset":1246896
		},
		{
			"buffer":0,
			"byteLength":1296,
			"byteOffset":1247868
		},
		{
			"buffer":0,
			"byteLength":972,
			"byteOffset":1249164
		},
		{
			"buffer":0,
			"byteLength":2412,
			"byteOffset":1250136
		},
		{
			"buffer":0,
			"byteLength":3216,
			"byteOffset":1252548
		},
		{
			"buffer":0,
			"byteLength":2412,
			"byteOffset":1255764
		},
		{
			"buffer":0,
			"byteLength":2412,
			"byteOffset":1258176
		},
		{
			"buffer":0,
			"byteLength":3216,
			"byteOffset":1260588
		},
		{
			"buffer":0,
			"byteLength":2412,
			"byteOffset":1263804
		},
		{
			"buffer":0,
			"byteLength":2412,
			"byteOffset":1266216
		},
		{
			"buffer":0,
			"byteLength":3216,
			"byteOffset":1268628
		},
		{
			"buffer":0,
			"byteLength":2412,
			"byteOffset":1271844
		},
		{
			"buffer":0,
			"byteLength":320,
			"byteOffset":1274256
		}
	],
	"samplers":[
		{
			"magFilter":9729,
			"minFilter":9987
		}
	],
	"buffers":[
		{
			"byteLength":1274576,
			"uri":"data:application/octet-stream;base64,"
		}
	]
}
