{
	"asset":{
		"generator":"Khronos glTF Blender I/O v3.5.30",
		"version":"2.0"
	},
	"scene":0,
	"scenes":[
		{
			"name":"Scene",
			"nodes":[
				0
			]
		}
	],
	"nodes":[
		{
			"mesh":0,
			"name":"Day9: Body Male",
			"rotation":[
				-0.5439954996109009,
				0,
				0,
				0.8390881419181824
			],
			"scale":[
				1.9280978441238403,
				1.9280986785888672,
				1.9280986785888672
			],
			"translation":[
				0.1443006992340088,
				2.0068132877349854,
				-1.154745101928711
			]
		}
	],
	"materials":[
		{
			"doubleSided":true,
			"name":"Scene_-_Root",
			"pbrMetallicRoughness":{
				"baseColorFactor":[
					0.45274433493614197,
					0.18822258710861206,
					0.09080315381288528,
					1
				],
				"metallicFactor":0,
				"roughnessFactor":0.6000000238418579
			}
		}
	],
	"meshes":[
		{
			"name":"Object_0.001",
			"primitives":[
				{
					"attributes":{
						"POSITION":0,
						"NORMAL":1
					},
					"indices":2,
					"material":0
				}
			]
		}
	],
	"accessors":[
		{
			"bufferView":0,
			"componentType":5126,
			"count":39829,
			"max":[
				0.7733460068702698,
				0.5602469444274902,
				0.42196470499038696
			],
			"min":[
				-0.7734742164611816,
				-1.3859999179840088,
				-0.31639358401298523
			],
			"type":"VEC3"
		},
		{
			"bufferView":1,
			"componentType":5126,
			"count":39829,
			"type":"VEC3"
		},
		{
			"bufferView":2,
			"componentType":5123,
			"count":238962,
			"type":"SCALAR"
		}
	],
	"bufferViews":[
		{
			"buffer":0,
			"byteLength":477948,
			"byteOffset":0,
			"target":34962
		},
		{
			"buffer":0,
			"byteLength":477948,
			"byteOffset":477948,
			"target":34962
		},
		{
			"buffer":0,
			"byteLength":477924,
			"byteOffset":955896,
			"target":34963
		}
	],
	"buffers":[
		{
			"byteLength":1433820,
			"uri":"data:application/octet-stream;base64,"
		}
	]
}
