{
	"asset":{
		"generator":"Khronos glTF Blender I/O v3.5.30",
		"version":"2.0"
	},
	"scene":0,
	"scenes":[
		{
			"name":"Scene",
			"nodes":[
				0
			]
		}
	],
	"nodes":[
		{
			"mesh":0,
			"name":"Cheetos - Flaming Hot_Cheetos Flaming Hot_0",
			"rotation":[
				-0.5628491044044495,
				-0.024017684161663055,
				-0.016365038231015205,
				0.8260485529899597
			],
			"scale":[
				0.09162617474794388,
				0.09162624180316925,
				0.09162626415491104
			],
			"translation":[
				0.029974935576319695,
				1.92641282081604,
				0.12336209416389465
			]
		}
	],
	"animations":[
		{
			"channels":[
				{
					"sampler":0,
					"target":{
						"node":0,
						"path":"translation"
					}
				},
				{
					"sampler":1,
					"target":{
						"node":0,
						"path":"rotation"
					}
				},
				{
					"sampler":2,
					"target":{
						"node":0,
						"path":"scale"
					}
				}
			],
			"name":"Cheetos - Flaming Hot_Cheetos Flaming Hot_0",
			"samplers":[
				{
					"input":6,
					"interpolation":"LINEAR",
					"output":7
				},
				{
					"input":6,
					"interpolation":"LINEAR",
					"output":8
				},
				{
					"input":6,
					"interpolation":"LINEAR",
					"output":9
				}
			]
		}
	],
	"materials":[
		{
			"doubleSided":true,
			"name":"Cheetos_Flaming_Hot",
			"normalTexture":{
				"index":0
			},
			"pbrMetallicRoughness":{
				"baseColorTexture":{
					"index":1
				},
				"metallicFactor":0,
				"roughnessFactor":0.7894423007965088
			}
		}
	],
	"meshes":[
		{
			"name":"Cheetos - Flaming Hot_Cheetos Flaming Hot_0",
			"primitives":[
				{
					"attributes":{
						"POSITION":0,
						"TEXCOORD_0":1,
						"TEXCOORD_1":2,
						"TEXCOORD_2":3,
						"NORMAL":4
					},
					"indices":5,
					"material":0
				}
			]
		}
	],
	"textures":[
		{
			"sampler":0,
			"source":0
		},
		{
			"sampler":0,
			"source":1
		}
	],
	"images":[
		{
			"bufferView":6,
			"mimeType":"image/png",
			"name":"Cheetos_Crunchy_normal"
		},
		{
			"bufferView":7,
			"mimeType":"image/png",
			"name":"Cheetos_Flaming_Hot_baseColor"
		}
	],
	"accessors":[
		{
			"bufferView":0,
			"componentType":5126,
			"count":74,
			"max":[
				12.030352592468262,
				17.279022216796875,
				5.391112804412842
			],
			"min":[
				-12.377203941345215,
				-17.720836639404297,
				-5.391112804412842
			],
			"type":"VEC3"
		},
		{
			"bufferView":1,
			"componentType":5126,
			"count":74,
			"type":"VEC2"
		},
		{
			"bufferView":2,
			"componentType":5126,
			"count":74,
			"type":"VEC2"
		},
		{
			"bufferView":3,
			"componentType":5126,
			"count":74,
			"type":"VEC2"
		},
		{
			"bufferView":4,
			"componentType":5126,
			"count":74,
			"type":"VEC3"
		},
		{
			"bufferView":5,
			"componentType":5123,
			"count":336,
			"type":"SCALAR"
		},
		{
			"bufferView":8,
			"componentType":5126,
			"count":500,
			"max":[
				20.791666666666668
			],
			"min":[
				0
			],
			"type":"SCALAR"
		},
		{
			"bufferView":9,
			"componentType":5126,
			"count":500,
			"type":"VEC3"
		},
		{
			"bufferView":10,
			"componentType":5126,
			"count":500,
			"type":"VEC4"
		},
		{
			"bufferView":11,
			"componentType":5126,
			"count":500,
			"type":"VEC3"
		}
	],
	"bufferViews":[
		{
			"buffer":0,
			"byteLength":888,
			"byteOffset":0,
			"target":34962
		},
		{
			"buffer":0,
			"byteLength":592,
			"byteOffset":888,
			"target":34962
		},
		{
			"buffer":0,
			"byteLength":592,
			"byteOffset":1480,
			"target":34962
		},
		{
			"buffer":0,
			"byteLength":592,
			"byteOffset":2072,
			"target":34962
		},
		{
			"buffer":0,
			"byteLength":888,
			"byteOffset":2664,
			"target":34962
		},
		{
			"buffer":0,
			"byteLength":672,
			"byteOffset":3552,
			"target":34963
		},
		{
			"buffer":0,
			"byteLength":1051036,
			"byteOffset":4224
		},
		{
			"buffer":0,
			"byteLength":1377548,
			"byteOffset":1055260
		},
		{
			"buffer":0,
			"byteLength":2000,
			"byteOffset":2432808
		},
		{
			"buffer":0,
			"byteLength":6000,
			"byteOffset":2434808
		},
		{
			"buffer":0,
			"byteLength":8000,
			"byteOffset":2440808
		},
		{
			"buffer":0,
			"byteLength":6000,
			"byteOffset":2448808
		}
	],
	"samplers":[
		{
			"magFilter":9729,
			"minFilter":9987
		}
	],
	"buffers":[
		{
			"byteLength":2454808,
			"uri":"data:application/octet-stream;base64,"
		}
	]
}
